<?xml version="1.0" encoding="UTF-8" standalone="no"?><!-- Generator: Gravit.io --><svg xmlns="http://www.w3.org/2000/svg" xmlns:xlink="http://www.w3.org/1999/xlink" style="isolation:isolate" viewBox="0 0 60 60" width="60pt" height="60pt"><defs><clipPath id="_clipPath_2D4fNxZuvO5goHE6mlDirNx06CPc6Ty8"><rect width="60" height="60"/></clipPath></defs><g clip-path="url(#_clipPath_2D4fNxZuvO5goHE6mlDirNx06CPc6Ty8)"><ellipse vector-effect="non-scaling-stroke" cx="29.874999999999982" cy="29.99999999999998" rx="28.875" ry="28.000000000000014" fill="rgb(252,208,136)"/><path d=" M 11.98 50.646 L 12.354 43.04 L 13.123 43.04 L 13.497 50.646 L 11.98 50.646 Z  M 13.628 40.889 L 13.628 40.889 L 13.628 40.889 Q 13.628 41.86 12.742 41.86 L 12.742 41.86 L 12.742 41.86 Q 12.303 41.86 12.083 41.605 L 12.083 41.605 L 12.083 41.605 Q 11.863 41.349 11.863 40.889 L 11.863 40.889 L 11.863 40.889 Q 11.863 40.435 12.094 40.176 L 12.094 40.176 L 12.094 40.176 Q 12.325 39.917 12.742 39.917 L 12.742 39.917 L 12.742 39.917 Q 13.116 39.917 13.372 40.147 L 13.372 40.147 L 13.372 40.147 Q 13.628 40.378 13.628 40.889 Z  M 24.358 37.442 L 24.358 47.962 L 23.113 47.962 L 23.113 43.011 L 17.474 43.011 L 17.474 47.962 L 16.229 47.962 L 16.229 37.442 L 17.474 37.442 L 17.474 41.918 L 23.113 41.918 L 23.113 37.442 L 24.358 37.442 Z  M 34.041 44.012 L 34.041 44.012 L 34.041 44.012 Q 34.041 45.94 33.052 47.023 L 33.052 47.023 L 33.052 47.023 Q 32.063 48.106 30.32 48.106 L 30.32 48.106 L 30.32 48.106 Q 29.244 48.106 28.409 47.609 L 28.409 47.609 L 28.409 47.609 Q 27.574 47.113 27.12 46.185 L 27.12 46.185 L 27.12 46.185 Q 26.666 45.256 26.666 44.012 L 26.666 44.012 L 26.666 44.012 Q 26.666 42.083 27.647 41.007 L 27.647 41.007 L 27.647 41.007 Q 28.628 39.932 30.372 39.932 L 30.372 39.932 L 30.372 39.932 Q 32.056 39.932 33.049 41.032 L 33.049 41.032 L 33.049 41.032 Q 34.041 42.133 34.041 44.012 Z  M 27.925 44.012 L 27.925 44.012 L 27.925 44.012 Q 27.925 45.523 28.541 46.314 L 28.541 46.314 L 28.541 46.314 Q 29.156 47.106 30.35 47.106 L 30.35 47.106 L 30.35 47.106 Q 31.543 47.106 32.162 46.318 L 32.162 46.318 L 32.162 46.318 Q 32.781 45.53 32.781 44.012 L 32.781 44.012 L 32.781 44.012 Q 32.781 42.508 32.162 41.727 L 32.162 41.727 L 32.162 41.727 Q 31.543 40.946 30.335 40.946 L 30.335 40.946 L 30.335 40.946 Q 29.141 40.946 28.533 41.716 L 28.533 41.716 L 28.533 41.716 Q 27.925 42.486 27.925 44.012 Z  M 37.388 36.765 L 37.388 47.962 L 36.172 47.962 L 36.172 36.765 L 37.388 36.765 Z  M 45.804 47.962 L 44.903 47.962 L 44.661 46.839 L 44.603 46.839 L 44.603 46.839 Q 44.002 47.581 43.405 47.843 L 43.405 47.843 L 43.405 47.843 Q 42.808 48.106 41.915 48.106 L 41.915 48.106 L 41.915 48.106 Q 40.721 48.106 40.043 47.501 L 40.043 47.501 L 40.043 47.501 Q 39.366 46.897 39.366 45.782 L 39.366 45.782 L 39.366 45.782 Q 39.366 43.393 43.255 43.278 L 43.255 43.278 L 44.617 43.234 L 44.617 42.745 L 44.617 42.745 Q 44.617 41.817 44.211 41.374 L 44.211 41.374 L 44.211 41.374 Q 43.804 40.932 42.911 40.932 L 42.911 40.932 L 42.911 40.932 Q 41.907 40.932 40.64 41.536 L 40.64 41.536 L 40.267 40.622 L 40.267 40.622 Q 40.86 40.306 41.567 40.126 L 41.567 40.126 L 41.567 40.126 Q 42.273 39.946 42.984 39.946 L 42.984 39.946 L 42.984 39.946 Q 44.419 39.946 45.112 40.572 L 45.112 40.572 L 45.112 40.572 Q 45.804 41.198 45.804 42.58 L 45.804 42.58 L 45.804 47.962 Z  M 42.156 47.12 L 42.156 47.12 L 42.156 47.12 Q 43.292 47.12 43.94 46.508 L 43.94 46.508 L 43.94 46.508 Q 44.588 45.897 44.588 44.796 L 44.588 44.796 L 44.588 44.083 L 43.372 44.134 L 43.372 44.134 Q 41.922 44.184 41.281 44.576 L 41.281 44.576 L 41.281 44.576 Q 40.64 44.969 40.64 45.796 L 40.64 45.796 L 40.64 45.796 Q 40.64 46.444 41.039 46.782 L 41.039 46.782 L 41.039 46.782 Q 41.438 47.12 42.156 47.12 Z  M 49.781 37.442 L 49.407 45.062 L 48.638 45.062 L 48.265 37.442 L 49.781 37.442 Z  M 48.133 47.199 L 48.133 47.199 L 48.133 47.199 Q 48.133 46.221 49.012 46.221 L 49.012 46.221 L 49.012 46.221 Q 49.437 46.221 49.667 46.472 L 49.667 46.472 L 49.667 46.472 Q 49.898 46.724 49.898 47.199 L 49.898 47.199 L 49.898 47.199 Q 49.898 47.66 49.664 47.915 L 49.664 47.915 L 49.664 47.915 Q 49.429 48.171 49.012 48.171 L 49.012 48.171 L 49.012 48.171 Q 48.631 48.171 48.382 47.944 L 48.382 47.944 L 48.382 47.944 Q 48.133 47.717 48.133 47.199 Z " fill="rgb(255,255,255)"/><path d=" M 19.602 10.916 L 19.602 21.436 L 18.357 21.436 L 18.357 16.485 L 12.717 16.485 L 12.717 21.436 L 11.472 21.436 L 11.472 10.916 L 12.717 10.916 L 12.717 15.391 L 18.357 15.391 L 18.357 10.916 L 19.602 10.916 Z  M 25.747 21.58 L 25.747 21.58 L 25.747 21.58 Q 23.967 21.58 22.938 20.515 L 22.938 20.515 L 22.938 20.515 Q 21.909 19.45 21.909 17.557 L 21.909 17.557 L 21.909 17.557 Q 21.909 15.65 22.865 14.528 L 22.865 14.528 L 22.865 14.528 Q 23.821 13.405 25.432 13.405 L 25.432 13.405 L 25.432 13.405 Q 26.941 13.405 27.82 14.38 L 27.82 14.38 L 27.82 14.38 Q 28.699 15.355 28.699 16.953 L 28.699 16.953 L 28.699 17.708 L 23.169 17.708 L 23.169 17.708 Q 23.206 19.097 23.883 19.817 L 23.883 19.817 L 23.883 19.817 Q 24.561 20.536 25.791 20.536 L 25.791 20.536 L 25.791 20.536 Q 27.087 20.536 28.354 20.004 L 28.354 20.004 L 28.354 21.069 L 28.354 21.069 Q 27.71 21.342 27.135 21.461 L 27.135 21.461 L 27.135 21.461 Q 26.56 21.58 25.747 21.58 Z  M 25.417 14.405 L 25.417 14.405 L 25.417 14.405 Q 24.451 14.405 23.876 15.024 L 23.876 15.024 L 23.876 15.024 Q 23.301 15.643 23.198 16.737 L 23.198 16.737 L 27.395 16.737 L 27.395 16.737 Q 27.395 15.607 26.882 15.006 L 26.882 15.006 L 26.882 15.006 Q 26.37 14.405 25.417 14.405 Z  M 31.987 10.239 L 31.987 21.436 L 30.771 21.436 L 30.771 10.239 L 31.987 10.239 Z  M 35.781 10.239 L 35.781 21.436 L 34.565 21.436 L 34.565 10.239 L 35.781 10.239 Z  M 45.288 17.485 L 45.288 17.485 L 45.288 17.485 Q 45.288 19.414 44.299 20.497 L 44.299 20.497 L 44.299 20.497 Q 43.311 21.58 41.567 21.58 L 41.567 21.58 L 41.567 21.58 Q 40.491 21.58 39.656 21.083 L 39.656 21.083 L 39.656 21.083 Q 38.821 20.587 38.367 19.658 L 38.367 19.658 L 38.367 19.658 Q 37.913 18.73 37.913 17.485 L 37.913 17.485 L 37.913 17.485 Q 37.913 15.557 38.894 14.481 L 38.894 14.481 L 38.894 14.481 Q 39.875 13.405 41.619 13.405 L 41.619 13.405 L 41.619 13.405 Q 43.303 13.405 44.296 14.506 L 44.296 14.506 L 44.296 14.506 Q 45.288 15.607 45.288 17.485 Z  M 39.172 17.485 L 39.172 17.485 L 39.172 17.485 Q 39.172 18.996 39.788 19.788 L 39.788 19.788 L 39.788 19.788 Q 40.403 20.579 41.597 20.579 L 41.597 20.579 L 41.597 20.579 Q 42.791 20.579 43.409 19.791 L 43.409 19.791 L 43.409 19.791 Q 44.028 19.003 44.028 17.485 L 44.028 17.485 L 44.028 17.485 Q 44.028 15.981 43.409 15.201 L 43.409 15.201 L 43.409 15.201 Q 42.791 14.42 41.582 14.42 L 41.582 14.42 L 41.582 14.42 Q 40.388 14.42 39.78 15.19 L 39.78 15.19 L 39.78 15.19 Q 39.172 15.96 39.172 17.485 Z  M 48.892 10.916 L 48.518 18.536 L 47.749 18.536 L 47.375 10.916 L 48.892 10.916 Z  M 47.244 20.673 L 47.244 20.673 L 47.244 20.673 Q 47.244 19.694 48.123 19.694 L 48.123 19.694 L 48.123 19.694 Q 48.547 19.694 48.778 19.946 L 48.778 19.946 L 48.778 19.946 Q 49.009 20.198 49.009 20.673 L 49.009 20.673 L 49.009 20.673 Q 49.009 21.133 48.774 21.389 L 48.774 21.389 L 48.774 21.389 Q 48.54 21.644 48.123 21.644 L 48.123 21.644 L 48.123 21.644 Q 47.742 21.644 47.493 21.418 L 47.493 21.418 L 47.493 21.418 Q 47.244 21.191 47.244 20.673 Z " fill="rgb(255,255,255)"/><path d=" M 40.75 32.638 L 40.75 32.638 L 40.9 31.429 L 40.9 31.429 Q 41.32 31.429 41.605 31.253 L 41.605 31.253 L 41.605 31.253 Q 41.89 31.076 42.16 30.671 L 42.16 30.671 L 42.16 30.671 Q 42.43 30.265 42.745 29.558 L 42.745 29.558 L 42.745 29.558 Q 43.18 28.615 43.608 28.128 L 43.608 28.128 L 43.608 28.128 Q 44.035 27.642 44.463 27.465 L 44.463 27.465 L 44.463 27.465 Q 44.89 27.288 45.31 27.288 L 45.31 27.288 L 45.31 27.288 Q 45.82 27.288 46.255 27.546 L 46.255 27.546 L 46.255 27.546 Q 46.69 27.804 47.02 28.232 L 47.02 28.232 L 47.02 28.232 Q 47.35 28.659 47.537 29.167 L 47.537 29.167 L 47.537 29.167 Q 47.725 29.676 47.725 30.177 L 47.725 30.177 L 47.725 30.177 Q 47.725 31.061 47.41 31.584 L 47.41 31.584 L 47.41 31.584 Q 47.095 32.107 46.608 32.336 L 46.608 32.336 L 46.608 32.336 Q 46.12 32.564 45.595 32.564 L 45.595 32.564 L 45.595 32.564 Q 45.16 32.564 44.493 32.417 L 44.493 32.417 L 44.493 32.417 Q 43.825 32.269 42.82 31.651 L 42.82 31.651 L 42.82 31.651 Q 42.34 32.328 41.86 32.483 L 41.86 32.483 L 41.86 32.483 Q 41.38 32.638 40.75 32.638 Z  M 43.555 30.339 L 43.555 30.339 L 43.555 30.339 Q 43.465 30.531 43.39 30.707 L 43.39 30.707 L 43.39 30.707 Q 44.035 31.076 44.568 31.216 L 44.568 31.216 L 44.568 31.216 Q 45.1 31.356 45.46 31.356 L 45.46 31.356 L 45.46 31.356 Q 46.105 31.356 46.375 31.076 L 46.375 31.076 L 46.375 31.076 Q 46.645 30.796 46.645 30.339 L 46.645 30.339 L 46.645 30.339 Q 46.645 29.912 46.435 29.484 L 46.435 29.484 L 46.435 29.484 Q 46.225 29.057 45.902 28.777 L 45.902 28.777 L 45.902 28.777 Q 45.58 28.497 45.22 28.497 L 45.22 28.497 L 45.22 28.497 Q 44.95 28.497 44.695 28.644 L 44.695 28.644 L 44.695 28.644 Q 44.44 28.792 44.17 29.189 L 44.17 29.189 L 44.17 29.189 Q 43.9 29.587 43.555 30.339 Z  M 34.81 35.983 L 34.81 35.983 L 34.375 34.863 L 34.375 34.863 Q 35.83 34.392 36.648 33.743 L 36.648 33.743 L 36.648 33.743 Q 37.465 33.095 37.803 32.38 L 37.803 32.38 L 37.803 32.38 Q 38.14 31.665 38.14 30.987 L 38.14 30.987 L 38.14 30.987 Q 38.14 30.265 37.818 29.521 L 37.818 29.521 L 37.818 29.521 Q 37.495 28.777 37.105 28.114 L 37.105 28.114 L 38.2 27.568 L 38.2 27.568 Q 38.62 28.349 38.912 29.072 L 38.912 29.072 L 38.912 29.072 Q 39.205 29.794 39.37 30.339 L 39.37 30.339 L 39.37 30.339 Q 39.58 30.973 39.918 31.201 L 39.918 31.201 L 39.918 31.201 Q 40.255 31.429 40.84 31.429 L 40.84 31.429 L 40.84 31.429 Q 41.155 31.429 41.298 31.599 L 41.298 31.599 L 41.298 31.599 Q 41.44 31.768 41.44 32.004 L 41.44 32.004 L 41.44 32.004 Q 41.44 32.24 41.23 32.439 L 41.23 32.439 L 41.23 32.439 Q 41.02 32.638 40.69 32.638 L 40.69 32.638 L 40.69 32.638 Q 40.12 32.638 39.738 32.461 L 39.738 32.461 L 39.738 32.461 Q 39.355 32.284 39.115 31.989 L 39.115 31.989 L 39.115 31.989 Q 38.965 32.815 38.485 33.493 L 38.485 33.493 L 38.485 33.493 Q 38.005 34.171 37.36 34.679 L 37.36 34.679 L 37.36 34.679 Q 36.715 35.187 36.04 35.512 L 36.04 35.512 L 36.04 35.512 Q 35.365 35.836 34.81 35.983 Z  M 26.5 32.638 L 26.5 32.638 L 26.635 31.429 L 26.635 31.429 Q 28.18 31.429 29.635 30.98 L 29.635 30.98 L 29.635 30.98 Q 31.09 30.531 32.29 29.705 L 32.29 29.705 L 32.29 29.705 Q 31.705 29.204 30.857 28.895 L 30.857 28.895 L 30.857 28.895 Q 30.01 28.585 28.99 28.585 L 28.99 28.585 L 28.99 28.585 Q 28.615 28.585 28.33 28.622 L 28.33 28.622 L 28.33 28.622 Q 28.045 28.659 27.64 28.747 L 27.64 28.747 L 27.4 27.627 L 27.4 27.627 Q 28.24 27.377 28.99 27.377 L 28.99 27.377 L 28.99 27.377 Q 29.77 27.377 30.4 27.561 L 30.4 27.561 L 30.4 27.561 Q 31.03 27.745 31.547 28.011 L 31.547 28.011 L 31.547 28.011 Q 32.065 28.276 32.523 28.541 L 32.523 28.541 L 32.523 28.541 Q 32.98 28.806 33.415 28.991 L 33.415 28.991 L 33.415 28.991 Q 33.85 29.175 34.315 29.175 L 34.315 29.175 L 34.63 29.175 L 34.735 30.236 L 34.735 30.236 Q 33.97 30.236 33.34 30.479 L 33.34 30.479 L 33.34 30.479 Q 32.71 30.722 32.072 31.083 L 32.072 31.083 L 32.072 31.083 Q 31.435 31.444 30.678 31.798 L 30.678 31.798 L 30.678 31.798 Q 29.92 32.152 28.915 32.395 L 28.915 32.395 L 28.915 32.395 Q 27.91 32.638 26.5 32.638 Z  M 21.25 32.638 L 21.25 32.638 L 21.4 31.429 L 21.4 31.429 Q 22.03 31.429 22.39 31.319 L 22.39 31.319 L 22.39 31.319 Q 22.75 31.208 22.937 30.892 L 22.937 30.892 L 22.937 30.892 Q 23.125 30.575 23.26 29.971 L 23.26 29.971 L 23.26 29.971 Q 23.395 29.366 23.59 28.394 L 23.59 28.394 L 24.76 28.615 L 24.76 28.615 Q 24.67 29.013 24.557 29.528 L 24.557 29.528 L 24.557 29.528 Q 24.445 30.044 24.445 30.398 L 24.445 30.398 L 24.445 30.398 Q 24.445 30.693 24.58 30.928 L 24.58 30.928 L 24.58 30.928 Q 24.715 31.164 25.157 31.297 L 25.157 31.297 L 25.157 31.297 Q 25.6 31.429 26.545 31.429 L 26.545 31.429 L 26.545 31.429 Q 26.86 31.429 27.002 31.599 L 27.002 31.599 L 27.002 31.599 Q 27.145 31.768 27.145 32.004 L 27.145 32.004 L 27.145 32.004 Q 27.145 32.24 26.935 32.439 L 26.935 32.439 L 26.935 32.439 Q 26.725 32.638 26.395 32.638 L 26.395 32.638 L 26.395 32.638 Q 25.21 32.638 24.64 32.387 L 24.64 32.387 L 24.64 32.387 Q 24.07 32.137 23.86 31.636 L 23.86 31.636 L 23.86 31.636 Q 23.41 32.255 22.825 32.446 L 22.825 32.446 L 22.825 32.446 Q 22.24 32.638 21.25 32.638 Z  M 23.8 35.379 L 23.8 35.379 L 23.8 35.379 Q 23.485 35.379 23.267 35.165 L 23.267 35.165 L 23.267 35.165 Q 23.05 34.952 23.05 34.657 L 23.05 34.657 L 23.05 34.657 Q 23.05 34.362 23.267 34.141 L 23.267 34.141 L 23.267 34.141 Q 23.485 33.92 23.8 33.92 L 23.8 33.92 L 23.8 33.92 Q 24.1 33.92 24.318 34.141 L 24.318 34.141 L 24.318 34.141 Q 24.535 34.362 24.535 34.657 L 24.535 34.657 L 24.535 34.657 Q 24.535 34.952 24.318 35.165 L 24.318 35.165 L 24.318 35.165 Q 24.1 35.379 23.8 35.379 Z  M 21.115 32.638 L 21.115 32.638 L 21.115 32.638 Q 19.9 32.638 19.27 32.373 L 19.27 32.373 L 19.27 32.373 Q 18.64 32.107 18.4 31.547 L 18.4 31.547 L 18.4 31.547 Q 18.16 30.987 18.13 30.103 L 18.13 30.103 L 17.83 22.042 L 19.06 22.042 L 19.36 29.632 L 19.36 29.632 Q 19.39 30.354 19.502 30.744 L 19.502 30.744 L 19.502 30.744 Q 19.615 31.135 20.013 31.282 L 20.013 31.282 L 20.013 31.282 Q 20.41 31.429 21.265 31.429 L 21.265 31.429 L 21.265 31.429 Q 21.58 31.429 21.723 31.599 L 21.723 31.599 L 21.723 31.599 Q 21.865 31.768 21.865 32.004 L 21.865 32.004 L 21.865 32.004 Q 21.865 32.24 21.655 32.439 L 21.655 32.439 L 21.655 32.439 Q 21.445 32.638 21.115 32.638 Z  M 15.82 22.042 L 15.445 29.602 L 14.59 29.602 L 14.215 22.042 L 15.82 22.042 Z  M 14.08 31.768 L 14.08 31.768 L 14.08 31.768 Q 14.08 31.223 14.35 31.002 L 14.35 31.002 L 14.35 31.002 Q 14.62 30.781 15.01 30.781 L 15.01 30.781 L 15.01 30.781 Q 15.385 30.781 15.662 31.002 L 15.662 31.002 L 15.662 31.002 Q 15.94 31.223 15.94 31.768 L 15.94 31.768 L 15.94 31.768 Q 15.94 32.299 15.662 32.535 L 15.662 32.535 L 15.662 32.535 Q 15.385 32.771 15.01 32.771 L 15.01 32.771 L 15.01 32.771 Q 14.62 32.771 14.35 32.535 L 14.35 32.535 L 14.35 32.535 Q 14.08 32.299 14.08 31.768 Z " fill="rgb(255,255,255)"/></g></svg>