<?xml version="1.0" encoding="UTF-8" standalone="no"?><!-- Generator: Gravit.io --><svg xmlns="http://www.w3.org/2000/svg" xmlns:xlink="http://www.w3.org/1999/xlink" style="isolation:isolate" viewBox="0 0 80 80" width="80pt" height="80pt"><defs><clipPath id="_clipPath_psLJbUz5sbljwIghshGb5peqAZuJ5nlm"><rect width="80" height="80"/></clipPath></defs><g clip-path="url(#_clipPath_psLJbUz5sbljwIghshGb5peqAZuJ5nlm)"><rect width="80" height="80" style="fill:rgb(0,0,0)" fill-opacity="0"/><path d="M 2.684 25.25 L 77.316 25.25 C 78.245 25.25 79 26.005 79 26.934 L 79 53.566 C 79 54.495 78.245 55.25 77.316 55.25 L 2.684 55.25 C 1.755 55.25 1 54.495 1 53.566 L 1 26.934 C 1 26.005 1.755 25.25 2.684 25.25 Z" style="stroke:none;fill:#FCD088;stroke-miterlimit:10;"/><path d="M 2.684 25.25 L 77.316 25.25 C 78.245 25.25 79 26.005 79 26.934 L 79 53.566 C 79 54.495 78.245 55.25 77.316 55.25 L 2.684 55.25 C 1.755 55.25 1 54.495 1 53.566 L 1 26.934 C 1 26.005 1.755 25.25 2.684 25.25 Z" style="fill:none;stroke:#FCD088;stroke-width:2;stroke-linecap:square;stroke-miterlimit:2;"/><path d=" M 23.293 43.208 L 23.293 43.208 L 23.293 43.208 Q 23.293 45.15 21.846 46.204 L 21.846 46.204 L 21.846 46.204 Q 20.398 47.258 17.783 47.258 L 17.783 47.258 L 17.783 47.258 Q 15.016 47.258 13.467 46.382 L 13.467 46.382 L 13.467 44.427 L 13.467 44.427 Q 14.47 44.935 15.619 45.227 L 15.619 45.227 L 15.619 45.227 Q 16.768 45.519 17.834 45.519 L 17.834 45.519 L 17.834 45.519 Q 19.484 45.519 20.373 44.992 L 20.373 44.992 L 20.373 44.992 Q 21.262 44.465 21.262 43.386 L 21.262 43.386 L 21.262 43.386 Q 21.262 42.573 20.557 41.996 L 20.557 41.996 L 20.557 41.996 Q 19.853 41.418 17.809 40.631 L 17.809 40.631 L 17.809 40.631 Q 15.866 39.907 15.047 39.368 L 15.047 39.368 L 15.047 39.368 Q 14.229 38.828 13.829 38.143 L 13.829 38.143 L 13.829 38.143 Q 13.429 37.457 13.429 36.505 L 13.429 36.505 L 13.429 36.505 Q 13.429 34.804 14.812 33.82 L 14.812 33.82 L 14.812 33.82 Q 16.196 32.836 18.608 32.836 L 18.608 32.836 L 18.608 32.836 Q 20.855 32.836 23.001 33.75 L 23.001 33.75 L 22.252 35.464 L 22.252 35.464 Q 20.157 34.601 18.456 34.601 L 18.456 34.601 L 18.456 34.601 Q 16.958 34.601 16.196 35.07 L 16.196 35.07 L 16.196 35.07 Q 15.435 35.54 15.435 36.365 L 15.435 36.365 L 15.435 36.365 Q 15.435 36.924 15.72 37.317 L 15.72 37.317 L 15.72 37.317 Q 16.006 37.711 16.641 38.066 L 16.641 38.066 L 16.641 38.066 Q 17.275 38.422 19.078 39.095 L 19.078 39.095 L 19.078 39.095 Q 21.554 39.996 22.423 40.91 L 22.423 40.91 L 22.423 40.91 Q 23.293 41.824 23.293 43.208 Z  M 31.215 45.519 L 31.215 45.519 L 31.215 45.519 Q 31.773 45.519 32.294 45.436 L 32.294 45.436 L 32.294 45.436 Q 32.814 45.354 33.119 45.265 L 33.119 45.265 L 33.119 46.877 L 33.119 46.877 Q 32.776 47.042 32.11 47.15 L 32.11 47.15 L 32.11 47.15 Q 31.443 47.258 30.91 47.258 L 30.91 47.258 L 30.91 47.258 Q 26.873 47.258 26.873 43.005 L 26.873 43.005 L 26.873 34.728 L 24.88 34.728 L 24.88 33.712 L 26.873 32.836 L 27.762 29.865 L 28.98 29.865 L 28.98 33.09 L 33.018 33.09 L 33.018 34.728 L 28.98 34.728 L 28.98 42.916 L 28.98 42.916 Q 28.98 44.173 29.577 44.846 L 29.577 44.846 L 29.577 44.846 Q 30.174 45.519 31.215 45.519 Z  M 39.302 47.08 L 33.69 33.09 L 35.95 33.09 L 38.997 41.024 L 38.997 41.024 Q 40 43.741 40.241 44.947 L 40.241 44.947 L 40.343 44.947 L 40.343 44.947 Q 40.508 44.3 41.035 42.732 L 41.035 42.732 L 41.035 42.732 Q 41.562 41.164 44.481 33.09 L 44.481 33.09 L 46.741 33.09 L 40.762 48.934 L 40.762 48.934 Q 39.873 51.282 38.686 52.266 L 38.686 52.266 L 38.686 52.266 Q 37.499 53.25 35.772 53.25 L 35.772 53.25 L 35.772 53.25 Q 34.808 53.25 33.868 53.034 L 33.868 53.034 L 33.868 51.346 L 33.868 51.346 Q 34.566 51.498 35.43 51.498 L 35.43 51.498 L 35.43 51.498 Q 37.601 51.498 38.527 49.061 L 38.527 49.061 L 39.302 47.08 Z  M 51.108 27.25 L 51.108 47.004 L 49.001 47.004 L 49.001 27.25 L 51.108 27.25 Z  M 61.455 47.258 L 61.455 47.258 L 61.455 47.258 Q 58.37 47.258 56.586 45.379 L 56.586 45.379 L 56.586 45.379 Q 54.803 43.5 54.803 40.161 L 54.803 40.161 L 54.803 40.161 Q 54.803 36.797 56.459 34.816 L 56.459 34.816 L 56.459 34.816 Q 58.116 32.836 60.909 32.836 L 60.909 32.836 L 60.909 32.836 Q 63.524 32.836 65.048 34.556 L 65.048 34.556 L 65.048 34.556 Q 66.571 36.276 66.571 39.095 L 66.571 39.095 L 66.571 40.428 L 56.986 40.428 L 56.986 40.428 Q 57.05 42.878 58.224 44.147 L 58.224 44.147 L 58.224 44.147 Q 59.398 45.417 61.531 45.417 L 61.531 45.417 L 61.531 45.417 Q 63.778 45.417 65.975 44.478 L 65.975 44.478 L 65.975 46.356 L 65.975 46.356 Q 64.857 46.839 63.861 47.048 L 63.861 47.048 L 63.861 47.048 Q 62.864 47.258 61.455 47.258 Z  M 60.884 34.601 L 60.884 34.601 L 60.884 34.601 Q 59.208 34.601 58.211 35.692 L 58.211 35.692 L 58.211 35.692 Q 57.215 36.784 57.037 38.714 L 57.037 38.714 L 64.312 38.714 L 64.312 38.714 Q 64.312 36.721 63.423 35.661 L 63.423 35.661 L 63.423 35.661 Q 62.534 34.601 60.884 34.601 Z " fill="rgb(255,255,255)"/><g><line x1="11" y1="31.195" x2="1" y2="40.195" vector-effect="non-scaling-stroke" stroke-width="2" stroke="rgb(255,255,255)" stroke-linejoin="miter" stroke-linecap="square" stroke-miterlimit="3"/><line x1="11.033" y1="49.305" x2="1" y2="40.317" vector-effect="non-scaling-stroke" stroke-width="2" stroke="rgb(255,255,255)" stroke-linejoin="miter" stroke-linecap="square" stroke-miterlimit="3"/></g><g><line x1="69" y1="31.195" x2="79" y2="40.195" vector-effect="non-scaling-stroke" stroke-width="2" stroke="rgb(255,255,255)" stroke-linejoin="miter" stroke-linecap="square" stroke-miterlimit="3"/><line x1="68.967" y1="49.305" x2="79" y2="40.317" vector-effect="non-scaling-stroke" stroke-width="2" stroke="rgb(255,255,255)" stroke-linejoin="miter" stroke-linecap="square" stroke-miterlimit="3"/></g></g></svg>