<?xml version="1.0" encoding="UTF-8" standalone="no"?><!-- Generator: Gravit.io --><svg xmlns="http://www.w3.org/2000/svg" xmlns:xlink="http://www.w3.org/1999/xlink" style="isolation:isolate" viewBox="0 0 80 80" width="80pt" height="80pt"><defs><clipPath id="_clipPath_TlX182SxdvkAcgtOf6GiEab2Qa3yO8mh"><rect width="80" height="80"/></clipPath></defs><g clip-path="url(#_clipPath_TlX182SxdvkAcgtOf6GiEab2Qa3yO8mh)"><path d="M 5.429 22 L 47.571 22 C 48.36 22 49 22.64 49 23.429 L 49 50.571 C 49 51.36 48.36 52 47.571 52 L 5.429 52 C 4.64 52 4 51.36 4 50.571 L 4 23.429 C 4 22.64 4.64 22 5.429 22 Z" style="stroke:none;fill:#FCD088;stroke-miterlimit:10;"/><path d="M 9.038 58 L 43.962 58 C 44.535 58 45 58.465 45 59.038 L 45 59.962 C 45 60.535 44.535 61 43.962 61 L 9.038 61 C 8.465 61 8 60.535 8 59.962 L 8 59.038 C 8 58.465 8.465 58 9.038 58 Z" style="stroke:none;fill:#FCD088;stroke-miterlimit:10;"/><rect x="20" y="49" width="13" height="9" transform="matrix(1,0,0,1,0,0)" fill="rgb(252,208,136)"/><path d="M 54.033 21 L 69.967 21 C 71.641 21 73 22.359 73 24.033 L 73 57.967 C 73 59.641 71.641 61 69.967 61 L 54.033 61 C 52.359 61 51 59.641 51 57.967 L 51 24.033 C 51 22.359 52.359 21 54.033 21 Z" style="stroke:none;fill:#FCD088;stroke-miterlimit:10;"/><path d="M 8.313 24 L 44.687 24 C 46.24 24 47.5 25.26 47.5 26.813 L 47.5 44.187 C 47.5 45.74 46.24 47 44.687 47 L 8.313 47 C 6.76 47 5.5 45.74 5.5 44.187 L 5.5 26.813 C 5.5 25.26 6.76 24 8.313 24 Z" style="stroke:none;fill:#FFFFFF;stroke-miterlimit:10;"/><path d="M 55.169 24 L 68.831 24 C 70.028 24 71 24.972 71 26.169 L 71 50.831 C 71 52.028 70.028 53 68.831 53 L 55.169 53 C 53.972 53 53 52.028 53 50.831 L 53 26.169 C 53 24.972 53.972 24 55.169 24 Z" style="stroke:none;fill:#FFFFFF;stroke-miterlimit:10;"/><circle vector-effect="non-scaling-stroke" cx="62" cy="56.500000000000014" r="1.5" fill="rgb(255,255,255)"/></g></svg>