<?xml version="1.0" encoding="UTF-8" standalone="no"?><!-- Generator: Gravit.io --><svg xmlns="http://www.w3.org/2000/svg" xmlns:xlink="http://www.w3.org/1999/xlink" style="isolation:isolate" viewBox="0 0 60 60" width="60pt" height="60pt"><defs><clipPath id="_clipPath_Y4xDRdjZOuoMDX2LMMvwagttU0NWLvW9"><rect width="60" height="60"/></clipPath></defs><g clip-path="url(#_clipPath_Y4xDRdjZOuoMDX2LMMvwagttU0NWLvW9)"><rect x="5" y="2" width="49" height="54" transform="matrix(1,0,0,1,0,0)" fill="rgb(252,208,136)"/><rect x="9" y="7" width="42" height="14" transform="matrix(1,0,0,1,0,0)" fill="rgb(255,255,255)"/><rect x="9" y="23" width="19" height="13" transform="matrix(1,0,0,1,0,0)" fill="rgb(255,255,255)"/><g><line x1="32" y1="39" x2="51" y2="39" vector-effect="non-scaling-stroke" stroke-width="1" stroke="rgb(255,255,255)" stroke-linejoin="miter" stroke-linecap="square" stroke-miterlimit="3"/><line x1="32" y1="42" x2="51" y2="42" vector-effect="non-scaling-stroke" stroke-width="1" stroke="rgb(255,255,255)" stroke-linejoin="miter" stroke-linecap="square" stroke-miterlimit="3"/><line x1="32" y1="45" x2="51" y2="45" vector-effect="non-scaling-stroke" stroke-width="1" stroke="rgb(255,255,255)" stroke-linejoin="miter" stroke-linecap="square" stroke-miterlimit="3"/><line x1="32" y1="48" x2="51" y2="48" vector-effect="non-scaling-stroke" stroke-width="1" stroke="rgb(255,255,255)" stroke-linejoin="miter" stroke-linecap="square" stroke-miterlimit="3"/><line x1="32" y1="51" x2="51" y2="51" vector-effect="non-scaling-stroke" stroke-width="1" stroke="rgb(255,255,255)" stroke-linejoin="miter" stroke-linecap="square" stroke-miterlimit="3"/></g><g><line x1="9" y1="39" x2="28" y2="39" vector-effect="non-scaling-stroke" stroke-width="1" stroke="rgb(255,255,255)" stroke-linejoin="miter" stroke-linecap="square" stroke-miterlimit="3"/><line x1="9" y1="42" x2="28" y2="42" vector-effect="non-scaling-stroke" stroke-width="1" stroke="rgb(255,255,255)" stroke-linejoin="miter" stroke-linecap="square" stroke-miterlimit="3"/><line x1="9" y1="45" x2="28" y2="45" vector-effect="non-scaling-stroke" stroke-width="1" stroke="rgb(255,255,255)" stroke-linejoin="miter" stroke-linecap="square" stroke-miterlimit="3"/><line x1="9" y1="48" x2="28" y2="48" vector-effect="non-scaling-stroke" stroke-width="1" stroke="rgb(255,255,255)" stroke-linejoin="miter" stroke-linecap="square" stroke-miterlimit="3"/><line x1="9" y1="51" x2="28" y2="51" vector-effect="non-scaling-stroke" stroke-width="1" stroke="rgb(255,255,255)" stroke-linejoin="miter" stroke-linecap="square" stroke-miterlimit="3"/></g><g><line x1="32" y1="24" x2="51" y2="24" vector-effect="non-scaling-stroke" stroke-width="1" stroke="rgb(255,255,255)" stroke-linejoin="miter" stroke-linecap="square" stroke-miterlimit="3"/><line x1="32" y1="27" x2="51" y2="27" vector-effect="non-scaling-stroke" stroke-width="1" stroke="rgb(255,255,255)" stroke-linejoin="miter" stroke-linecap="square" stroke-miterlimit="3"/><line x1="32" y1="30" x2="51" y2="30" vector-effect="non-scaling-stroke" stroke-width="1" stroke="rgb(255,255,255)" stroke-linejoin="miter" stroke-linecap="square" stroke-miterlimit="3"/><line x1="32" y1="33" x2="51" y2="33" vector-effect="non-scaling-stroke" stroke-width="1" stroke="rgb(255,255,255)" stroke-linejoin="miter" stroke-linecap="square" stroke-miterlimit="3"/><line x1="32" y1="36" x2="51" y2="36" vector-effect="non-scaling-stroke" stroke-width="1" stroke="rgb(255,255,255)" stroke-linejoin="miter" stroke-linecap="square" stroke-miterlimit="3"/></g><circle vector-effect="non-scaling-stroke" cx="17.5" cy="28.5" r="2.5" fill="rgb(252,208,136)"/><ellipse vector-effect="non-scaling-stroke" cx="17.5" cy="32.500000000000014" rx="4.5" ry="1.5" fill="rgb(252,208,136)"/></g></svg>