<?xml version="1.0" encoding="UTF-8" standalone="no"?><!-- Generator: Gravit.io --><svg xmlns="http://www.w3.org/2000/svg" xmlns:xlink="http://www.w3.org/1999/xlink" style="isolation:isolate" viewBox="0 0 60 60" width="60pt" height="60pt"><defs><clipPath id="_clipPath_GGxRRhXS0wBJ7yyFwIjWhuo7vRMtWLs6"><rect width="60" height="60"/></clipPath></defs><g clip-path="url(#_clipPath_GGxRRhXS0wBJ7yyFwIjWhuo7vRMtWLs6)"><clipPath id="_clipPath_JJECDFk0hgc8ER5bQFAn35ktU90lpI83"><rect x="-2" y="0" width="72" height="67.886" transform="matrix(1,0,0,1,0,0)" fill="rgb(255,255,255)"/></clipPath><g clip-path="url(#_clipPath_JJECDFk0hgc8ER5bQFAn35ktU90lpI83)"><clipPath id="_clipPath_9dgP6zGPDrQijspZvQsZM0ksuoqzAa5s"><path d=" M -4.7 -1.697 L 67.3 -1.697 L 67.3 66.189 L -4.7 66.189 L -4.7 -1.697 Z " fill="rgb(255,255,255)"/></clipPath><g clip-path="url(#_clipPath_9dgP6zGPDrQijspZvQsZM0ksuoqzAa5s)"><path d=" M 57.4 56.006 L -2 56.006 L -2 0 L 57.4 0 L 57.4 56.006 Z " fill="none"/><path d=" M 29.485 2.546 C 13.753 2.546 1 14.57 1 29.403 C 1 44.236 13.753 56.26 29.485 56.26 C 45.217 56.26 57.97 44.236 57.97 29.403 C 57.97 14.57 45.217 2.546 29.485 2.546 Z  M 29.485 4.157 C 33.101 4.157 36.607 4.824 39.907 6.14 C 41.493 6.773 43.023 7.556 44.455 8.468 C 45.873 9.371 47.206 10.409 48.418 11.551 C 49.631 12.694 50.731 13.952 51.689 15.289 C 52.656 16.638 53.487 18.081 54.157 19.577 C 55.553 22.688 56.261 25.994 56.261 29.403 C 56.261 32.812 55.553 36.118 54.157 39.229 C 53.487 40.725 52.656 42.167 51.689 43.517 C 50.731 44.854 49.631 46.112 48.418 47.254 C 47.206 48.397 45.873 49.435 44.455 50.338 C 43.023 51.25 41.493 52.033 39.907 52.665 C 36.607 53.982 33.101 54.649 29.485 54.649 C 25.87 54.649 22.363 53.982 19.063 52.665 C 17.477 52.033 15.947 51.25 14.516 50.338 C 13.097 49.435 11.764 48.397 10.552 47.254 C 9.339 46.112 8.239 44.854 7.281 43.517 C 6.314 42.167 5.484 40.725 4.813 39.229 C 3.417 36.118 2.709 32.812 2.709 29.403 C 2.709 25.994 3.417 22.688 4.813 19.577 C 5.484 18.081 6.314 16.638 7.281 15.289 C 8.239 13.952 9.339 12.694 10.552 11.551 C 11.764 10.409 13.097 9.371 14.516 8.468 C 15.947 7.556 17.477 6.773 19.063 6.14 C 22.363 4.824 25.87 4.157 29.485 4.157 Z " fill="rgb(252,208,136)"/><path d=" M 51.401 18.103 C 51.509 18.853 51.569 19.658 51.569 20.524 C 51.569 22.913 51.095 25.599 49.67 28.958 L 42.042 49.753 C 49.467 45.671 54.46 38.087 54.46 29.4 C 54.46 25.306 53.35 21.457 51.401 18.103 Z  M 29.924 31.459 L 22.429 51.989 C 24.667 52.61 27.034 52.948 29.485 52.948 C 32.393 52.948 35.183 52.475 37.779 51.613 C 37.712 51.513 37.651 51.406 37.6 51.289 L 29.924 31.459 Z  M 46.345 28.212 C 46.345 25.301 45.236 23.286 44.286 21.718 C 43.02 19.777 41.833 18.136 41.833 16.195 C 41.833 14.031 43.574 12.016 46.027 12.016 C 46.138 12.016 46.243 12.029 46.35 12.035 C 41.907 8.196 35.987 5.853 29.485 5.853 C 20.759 5.853 13.084 10.074 8.618 16.466 C 9.204 16.483 9.757 16.494 10.225 16.494 C 12.837 16.494 16.882 16.195 16.882 16.195 C 18.227 16.121 18.386 17.986 17.041 18.136 C 17.041 18.136 15.688 18.285 14.183 18.359 L 23.277 43.866 L 28.744 28.411 L 24.853 18.359 C 23.507 18.285 22.233 18.136 22.233 18.136 C 20.887 18.061 21.045 16.121 22.392 16.195 C 22.392 16.195 26.515 16.494 28.969 16.494 C 31.581 16.494 35.626 16.195 35.626 16.195 C 36.973 16.121 37.131 17.986 35.786 18.136 C 35.786 18.136 34.431 18.285 32.927 18.359 L 41.953 43.672 L 44.529 35.974 C 45.674 32.61 46.345 30.227 46.345 28.212 Z  M 4.51 29.4 C 4.51 38.72 10.254 46.775 18.586 50.592 L 6.673 19.817 C 5.287 22.745 4.51 25.986 4.51 29.4 Z " fill="rgb(252,208,136)"/></g></g></g></svg>